HIERARCHY
ROOT Joint1
{
	OFFSET 0.000000 0.000000 0.000000
	CHANNELS 6 Xposition Yposition Zposition Xrotation Yrotation Zrotation
	JOINT Joint2
	{
		OFFSET -0.000000 0.000000 1.456275
		CHANNELS 6 Xposition Yposition Zposition Xrotation Yrotation Zrotation
		JOINT Joint3
		{
			OFFSET -0.000000 0.000002 1.471446
			CHANNELS 6 Xposition Yposition Zposition Xrotation Yrotation Zrotation
			JOINT Joint4
			{
				OFFSET 0.625745 0.000000 0.917755
				CHANNELS 6 Xposition Yposition Zposition Xrotation Yrotation Zrotation
				JOINT Joint5
				{
					OFFSET -0.629534 0.000001 0.940221
					CHANNELS 6 Xposition Yposition Zposition Xrotation Yrotation Zrotation
					JOINT Joint6
					{
						OFFSET -0.000001 0.113772 1.960660
						CHANNELS 6 Xposition Yposition Zposition Xrotation Yrotation Zrotation
						JOINT Joint7
						{
							OFFSET -0.669733 -0.113771 0.388340
							CHANNELS 6 Xposition Yposition Zposition Xrotation Yrotation Zrotation
							End Site
							{
								OFFSET 0.005509 0.005509 0.438980
							}
						}
					}
				}
			}
		}
	}
}
MOTION
Frames: 12
Frame Time: 0.041667
0.000000 0.000000 0.000000 -0.000000 1.019410 120.257420 -0.000000 -0.000000 1.456275 -0.000001 37.655297 0.000001 -0.000000 0.000002 1.471445 -0.000007 -1.133463 -104.490747 0.625745 0.000000 0.917755 0.000007 167.531085 -0.000001 -0.629534 0.000001 0.940221 -0.000000 1.709733 157.600509 -0.000001 0.113772 1.960661 -88.303875 -163.066764 -0.000003 -0.669733 -0.113771 0.388341 -1.204435 3.435914 164.337548 
0.000000 0.000000 0.000000 -0.000000 1.019410 120.167015 -0.000000 -0.000000 1.456275 -0.000000 37.593173 -0.000001 -0.000001 0.000002 1.471446 -0.000010 -1.133468 -104.412221 0.625745 0.000001 0.917755 0.000002 167.506660 -0.000002 -0.629534 0.000001 0.940221 -0.000002 1.709735 157.482032 -0.000001 0.113772 1.960660 -88.303875 -163.147155 0.000001 -0.669733 -0.113771 0.388341 -1.204096 3.436109 164.315459 
0.000000 0.000000 0.000000 -0.000000 1.019410 120.011328 -0.000000 -0.000000 1.456275 0.000002 37.486182 -0.000002 -0.000000 0.000002 1.471446 -0.000009 -1.133467 -104.276997 0.625744 0.000000 0.917754 0.000004 167.464572 -0.000001 -0.629534 0.000001 0.940221 -0.000003 1.709734 157.277974 -0.000001 0.113772 1.960660 -88.303875 -163.285617 -0.000002 -0.669733 -0.113771 0.388341 -1.203509 3.436437 164.277456 
0.000000 0.000000 0.000000 -0.000000 1.019410 119.786246 -0.000000 0.000000 1.456275 -0.000001 37.331516 0.000000 -0.000000 0.000002 1.471446 -0.000007 -1.133466 -104.081496 0.625745 0.000000 0.917755 0.000004 167.403729 -0.000001 -0.629533 0.000001 0.940220 0.000000 1.709733 156.982964 -0.000001 0.113772 1.960660 -88.303875 -163.485810 0.000003 -0.669733 -0.113771 0.388340 -1.202652 3.436917 164.222500 
0.000000 0.000000 0.000000 -0.000000 1.019410 119.487657 -0.000000 0.000000 1.456275 0.000003 37.126340 -0.000002 -0.000000 0.000002 1.471445 -0.000008 -1.133469 -103.822168 0.625745 0.000000 0.917755 0.000006 167.323010 0.000000 -0.629534 0.000001 0.940221 -0.000002 1.709735 156.591649 -0.000001 0.113772 1.960660 -88.303875 -163.751354 0.000003 -0.669733 -0.113771 0.388340 -1.201525 3.437547 164.149608 
0.000000 0.000000 0.000000 -0.000000 1.019410 119.111505 -0.000000 0.000000 1.456275 0.000001 36.867835 0.000001 -0.000000 0.000002 1.471445 -0.000005 -1.133467 -103.495432 0.625745 0.000000 0.917754 0.000008 167.221322 -0.000000 -0.629534 0.000001 0.940221 -0.000004 1.709737 156.098605 -0.000001 0.113772 1.960660 -88.303875 -164.085896 -0.000002 -0.669733 -0.113771 0.388340 -1.200099 3.438337 164.057770 
0.000000 0.000000 0.000000 -0.000000 1.019410 118.653636 -0.000000 -0.000000 1.456275 -0.000000 36.553192 -0.000000 -0.000000 0.000002 1.471446 -0.000007 -1.133464 -103.097730 0.625744 0.000001 0.917754 0.000002 167.097545 -0.000002 -0.629534 0.000001 0.940221 -0.000001 1.709733 155.498505 -0.000001 0.113772 1.960660 -88.303875 -164.493112 -0.000003 -0.669733 -0.113771 0.388340 -1.198364 3.439298 163.945960 
0.000000 0.000000 0.000000 -0.000000 1.019410 118.109940 -0.000000 0.000000 1.456275 0.000001 36.179577 0.000002 -0.000000 0.000002 1.471445 -0.000006 -1.133462 -102.625498 0.625744 0.000000 0.917755 0.000006 166.950587 -0.000000 -0.629534 0.000001 0.940220 0.000001 1.709733 154.785925 -0.000001 0.113772 1.960660 -88.303882 -164.976621 0.000002 -0.669733 -0.113771 0.388340 -1.196299 3.440435 163.813222 
0.000000 0.000000 0.000000 -0.000000 1.019410 117.476330 -0.000000 0.000000 1.456275 0.000001 35.744180 0.000001 -0.000000 0.000002 1.471445 -0.000005 -1.133465 -102.075169 0.625745 0.000000 0.917754 0.000005 166.779300 -0.000001 -0.629534 0.000001 0.940220 -0.000004 1.709734 153.955496 -0.000001 0.113772 1.960660 -88.303875 -165.540126 0.000000 -0.669733 -0.113771 0.388340 -1.193893 3.441755 163.658518 
0.000000 0.000000 0.000000 -0.000000 1.019410 116.748724 -0.000000 -0.000000 1.456275 0.000000 35.244165 0.000001 -0.000000 0.000002 1.471445 -0.000008 -1.133466 -101.443185 0.625744 0.000000 0.917755 0.000009 166.582617 0.000001 -0.629534 0.000001 0.940221 -0.000004 1.709736 153.001838 -0.000001 0.113772 1.960660 -88.303882 -166.187231 0.000002 -0.669733 -0.113771 0.388340 -1.191118 3.443259 163.480865 
0.000000 0.000000 0.000000 -0.000000 1.019410 115.929156 -0.000000 0.000000 1.456275 0.000000 34.680969 0.000001 -0.000000 0.000002 1.471446 -0.000006 -1.133465 -100.731329 0.625744 0.000000 0.917755 0.000006 166.361073 -0.000001 -0.629534 0.000001 0.940221 -0.000007 1.709736 151.927668 -0.000001 0.113771 1.960661 -88.303882 -166.916122 -0.000002 -0.669733 -0.113771 0.388340 -1.187992 3.444946 163.280754 
0.000000 0.000000 0.000000 -0.000000 1.019410 115.044360 -0.000000 -0.000000 1.456275 0.000001 34.072955 0.000001 -0.000000 0.000002 1.471446 -0.000007 -1.133466 -99.962831 0.625744 0.000001 0.917755 0.000000 166.121894 -0.000000 -0.629534 0.000001 0.940221 -0.000003 1.709736 150.768025 -0.000001 0.113772 1.960661 -88.303868 -167.703014 -0.000001 -0.669733 -0.113771 0.388340 -1.184609 3.446755 163.064715 
